# xmcd CD database file
#
# Track frame offsets:
#	182
#	17347
#	39000
#	58422
#	75940
#	90945
#	115290
#	141992
#	163362
#	173712
#	188905
#	197862
#	219437
#	247835
#	271180
#	291885
#	303587
#	325465
#
# Disc length: 4622 seconds
#
# Revision: 0
# Processed by: cddbd v1.4PL0 Copyright (c) Steve Scherf et al.
# Submitted via: CDex 1.51
#
DISCID=f7120c12
DTITLE=Milt Hinton - The Judge At His Best
DYEAR=1900
DGENRE=Jazz
TTITLE0=Joshua
TTITLE1=I Know That You Know
TTITLE2=Russian Lullaby
TTITLE3=Deep Night
TTITLE4=Shine
TTITLE5=Mona's Feeling Lonely
TTITLE6=Right Here, Right Now
TTITLE7=Rosetta
TTITLE8=Mama Don't Allow It
TTITLE9=Slap Happy
TTITLE10=Milt's Rap
TTITLE11=Honey
TTITLE12=New Orleans
TTITLE13=Jumping At The Woodside
TTITLE14=Just A Closer Walk With Thee
TTITLE15=What Am I Here For?
TTITLE16=Hindustan
TTITLE17=Old Man Time
EXTD=
EXTT0=
EXTT1=
EXTT2=
EXTT3=
EXTT4=
EXTT5=
EXTT6=
EXTT7=
EXTT8=
EXTT9=
EXTT10=
EXTT11=
EXTT12=
EXTT13=
EXTT14=
EXTT15=
EXTT16=
EXTT17=
PLAYORDER=
